<?xml version="1.0" encoding="UTF-8"?>
<svg width="449.84" height="337.02" enable-background="new 0 0 449.835 337.015" viewBox="0 0 449.835 337.015" xmlns="http://www.w3.org/2000/svg">
 <defs>
  <linearGradient id="z" x2="0" y1="155.21" y2="53.911" gradientUnits="userSpaceOnUse">
   <stop stop-color="#fff" offset="0"/>
   <stop stop-color="#fff" offset="1"/>
  </linearGradient>
  <linearGradient id="o" x2="0" y1="227.98" y2="4.2463" gradientUnits="userSpaceOnUse">
   <stop stop-color="#fff" offset="0"/>
   <stop stop-color="#fff" offset="1"/>
  </linearGradient>
  <linearGradient id="g" x2="0" y1="319.33" y2="191.74" gradientUnits="userSpaceOnUse">
   <stop stop-color="#fee0a5" offset="0"/>
   <stop stop-color="#be7929" offset="1"/>
  </linearGradient>
  <linearGradient id="f" x2="0" y1="317.25" y2="205.88" gradientUnits="userSpaceOnUse">
   <stop stop-color="#fee0a5" offset="0"/>
   <stop stop-color="#be7929" offset="1"/>
  </linearGradient>
  <linearGradient id="e" x2="0" y1="334.96" y2="1.3654" gradientUnits="userSpaceOnUse">
   <stop stop-color="#fee0a5" offset="0"/>
   <stop stop-color="#be7929" offset="1"/>
  </linearGradient>
  <linearGradient id="d" x2="0" y1="167.27" y2="7.935" gradientUnits="userSpaceOnUse">
   <stop stop-color="#fee0a5" offset="0"/>
   <stop stop-color="#be7929" offset="1"/>
  </linearGradient>
  <linearGradient id="c" x2="0" y1="156.1" y2="73.792" gradientUnits="userSpaceOnUse">
   <stop offset="0"/>
   <stop offset="1"/>
  </linearGradient>
  <linearGradient id="b" x2="0" y1="102.85" y2="42.66" gradientUnits="userSpaceOnUse">
   <stop offset="0"/>
   <stop offset="1"/>
  </linearGradient>
  <linearGradient id="a" x2="0" y1="125.87" y2="104.02" gradientUnits="userSpaceOnUse">
   <stop offset="0"/>
   <stop offset="1"/>
  </linearGradient>
  <linearGradient id="aj" x2="0" y1="137.04" y2="122.9" gradientUnits="userSpaceOnUse">
   <stop offset="0"/>
   <stop offset="1"/>
  </linearGradient>
  <linearGradient id="ai" x2="0" y1="222.75" y2="156.4" gradientUnits="userSpaceOnUse">
   <stop offset="0"/>
   <stop offset="1"/>
  </linearGradient>
  <linearGradient id="ah" x2="0" y1="230.71" y2="193.11" gradientUnits="userSpaceOnUse">
   <stop offset="0"/>
   <stop offset="1"/>
  </linearGradient>
  <linearGradient id="ag" x2="0" y1="75.592" y2=".01702" gradientUnits="userSpaceOnUse">
   <stop offset="0"/>
   <stop offset="1"/>
  </linearGradient>
  <linearGradient id="af" x2="0" y1="53.637" y2="12.794" gradientUnits="userSpaceOnUse">
   <stop offset="0"/>
   <stop offset="1"/>
  </linearGradient>
  <linearGradient id="ae" x2="0" y1="109.87" y2="87.822" gradientUnits="userSpaceOnUse">
   <stop offset="0"/>
   <stop offset="1"/>
  </linearGradient>
  <linearGradient id="ad" x2="0" y1="131.04" y2="93.857" gradientUnits="userSpaceOnUse">
   <stop offset="0"/>
   <stop offset="1"/>
  </linearGradient>
  <linearGradient id="ac" x2="0" y1="133.35" y2="81.169" gradientUnits="userSpaceOnUse">
   <stop offset="0"/>
   <stop offset="1"/>
  </linearGradient>
  <linearGradient id="ab" x2="0" y1="260.59" y2="155.33" gradientUnits="userSpaceOnUse">
   <stop offset="0"/>
   <stop offset="1"/>
  </linearGradient>
  <linearGradient id="aa" x2="0" y1="224.59" y2="167.92" gradientUnits="userSpaceOnUse">
   <stop offset="0"/>
   <stop offset="1"/>
  </linearGradient>
  <linearGradient id="y" x2="0" y1="331.45" y2="230.41" gradientUnits="userSpaceOnUse">
   <stop offset="0"/>
   <stop offset="1"/>
  </linearGradient>
  <linearGradient id="x" x2="0" y1="318.5" y2="230.77" gradientUnits="userSpaceOnUse">
   <stop offset="0"/>
   <stop offset="1"/>
  </linearGradient>
  <linearGradient id="w" x2="0" y1="90.703" y2="79.999" gradientUnits="userSpaceOnUse">
   <stop offset="0"/>
   <stop offset="1"/>
  </linearGradient>
  <linearGradient id="v" x2="0" y1="315.83" y2="218.53" gradientUnits="userSpaceOnUse">
   <stop offset="0"/>
   <stop offset="1"/>
  </linearGradient>
  <linearGradient id="u" x2="0" y1="313.81" y2="239.44" gradientUnits="userSpaceOnUse">
   <stop offset="0"/>
   <stop offset="1"/>
  </linearGradient>
  <linearGradient id="t" x2="0" y1="333.17" y2="203.8" gradientUnits="userSpaceOnUse">
   <stop offset="0"/>
   <stop offset="1"/>
  </linearGradient>
  <linearGradient id="s" x2="0" y1="331.93" y2="171.96" gradientUnits="userSpaceOnUse">
   <stop offset="0"/>
   <stop offset="1"/>
  </linearGradient>
  <linearGradient id="r" x2="0" y1="281.61" y2="202.91" gradientUnits="userSpaceOnUse">
   <stop offset="0"/>
   <stop offset="1"/>
  </linearGradient>
  <linearGradient id="q" x2="0" y1="314.34" y2="307.33" gradientUnits="userSpaceOnUse">
   <stop offset="0"/>
   <stop offset="1"/>
  </linearGradient>
  <linearGradient id="p" x2="0" y1="313.93" y2="309.41" gradientUnits="userSpaceOnUse">
   <stop offset="0"/>
   <stop offset="1"/>
  </linearGradient>
  <linearGradient id="n" x2="0" y1="335.07" y2="326.52" gradientUnits="userSpaceOnUse">
   <stop offset="0"/>
   <stop offset="1"/>
  </linearGradient>
  <linearGradient id="m" x2="0" y1="337.03" y2="327.77" gradientUnits="userSpaceOnUse">
   <stop offset="0"/>
   <stop offset="1"/>
  </linearGradient>
  <linearGradient id="l" x2="0" y1="313.57" y2="306.56" gradientUnits="userSpaceOnUse">
   <stop offset="0"/>
   <stop offset="1"/>
  </linearGradient>
  <linearGradient id="k" x2="0" y1="313.1" y2="308.52" gradientUnits="userSpaceOnUse">
   <stop offset="0"/>
   <stop offset="1"/>
  </linearGradient>
  <linearGradient id="j" x2="0" y1="331.63" y2="323.08" gradientUnits="userSpaceOnUse">
   <stop offset="0"/>
   <stop offset="1"/>
  </linearGradient>
  <linearGradient id="i" x2="0" y1="333.65" y2="324.38" gradientUnits="userSpaceOnUse">
   <stop offset="0"/>
   <stop offset="1"/>
  </linearGradient>
  <linearGradient id="h" x2="0" y1="170.42" y2="6.6758" gradientUnits="userSpaceOnUse">
   <stop offset="0"/>
   <stop offset="1"/>
  </linearGradient>
 </defs>
 <g fill-rule="evenodd">
  <path d="m367.06 84.569 29.599-30.678 39.045 61.265-42.284 40.035-88.619-35.805 29.509-9.537 37.069 21.142 14.573-2.159 12.774-10.615 1.08-12.598-3.147-15.833-13.676-5.218h-15.906z" fill="url(#z)"/>
  <path d="m65.316 4.23-3.239 28.609-18.983-12.776 7.377 31.758-12.684 14.754-7.378 17.994-25.371 22.041 2.159 12.776 21.143 10.436 9.447 2.159 32.748-8.458 7.377 1.081 12.686 8.456 10.527 29.511 11.605 34.818 21.143 23.21 66.485 7.375 31.668-8.456 27.35-20.063 32.748-6.299-7.379-16.912-179.38-102.3-40.034-69.72z" fill="url(#o)"/>
  <path d="m260.63,198.2 5.037,24.558 9.536,13.678 26.721,17.901 6.749,11.965-1.71,7.108-1.709,6.746-4.318,12.235-2.699,4.681-2.79,3.509-3.509,1.98-5.037,1.528-3.059.271-2.788,1.348-4.051,2.429-5.128,4.499-1.348,2.699 1.709,1.98 3.147.629 4.408.542 4.681.806h5.127l5.847-.357 4.68-1.171 8.547-6.928 22.49-46.334-7.107-14.931-3.057-25.281-19.973-32.569-27.442,2.699-12.96,3.76z" fill="url(#g)"/>
  <path d="m127.93,216.82 2.879,23.481-2.879,30.499-8.816,26.361-8.457,4.771-6.297,4.047-4.679,4.676 .9,3.78 2.159,1.799 5.759.99h12.144l5.488-.99 5.488-2.247 5.129-3.78 1.259-4.499-.359-7.827 3.419-8.546 2.699-3.418 4.407-11.607 2.609-11.517 5.218-15.74-1.798-19.077-27.711-15.74-6.388-6.389 7.82,10.99z" fill="url(#f)"/>
  <path d="m41.115,18.263 1.44,5.218 7.377,6.299 4.678,4.947 5.128,4.768 6.298,8.099-6.208,5.668-3.778,4.228-6.208,6.299-5.308,7.196-2.879,5.758-1.889,7.737 .45,4.318 1.439,4.318 2.879,3.868 3.778,2.34 4.409,1.44 4.049-.181 6.387-.269 9.447,8.636 5.217,5.668 7.018,6.568 4.409,3.959 4.049,3.688 2.519,4.228 6.657,11.607 2.879,8.458 2.16,9.715 3.148,9.625 2.34,4.499 3.238,4.228 5.309,5.67 4.947,4.228 5.039,2.609 7.106,1.799 14.396,29.957 10.256,52.09v37.427l-12.956,7.47-5.038,9.445 3.869,2.248 6.298.813h10.525l10.886-1.533 9.538-5.484-.811-16.555-2.159-11.517 1.709-27.08 4.949-53.171-2.699-13.764-.45-3.147 2.249-1.8 3.059-.271 3.149.719 7.558,1.438 8.546.271 8.188-.81 6.657-.628 7.916-1.442 7.917-2.066 14.035-2.609 11.786-2.342 8.458-1.257h6.746l6.837,1.257 27.621,30.142 27.439,18.444 10.617,16.373 1.979,11.874 .359,11.607v10.617l-.359,5.395-.631,6.117-.988,3.328-.812,2.609-.988,2.252-1.53,2.428-8.187,3.419-3.419,2.428-1.618,1.442-1.8,2.967-1.53,4.86 .542,2.608 1.619,1.438 3.146.271 3.328-.271 10.889-1.438 11.783-2.97 6.118-5.309 12.866-69.093-14.845-22.133-2.519-4.228-1.259-4.228-1.891-8.817 13.765-33.736-3.147-18.983-48.404-39.856 5.22.271 5.577.9 4.681,1.797 7.375,3.78 4.318,1.8 4.77.9h7.646l-17.635-23.391-17.901-9.448-17.994-4.318h-21.053l-27.53,3.238-23.12,5.309-27.41,3.02-31.758-5.218-17.993-1.079-13.766-12.236-10.976-7.917-24.741-18.984-5.757-4.406-3.779-6.568-11.955-23.118-28.16-25.731-2.159,1.979-.449,5.758h1.889l1.889.452 2.159,1.707 1.62,2.968 2.699,5.04 2.25,5.489 3.509,7.734 2.429,7.018 2.339,5.13 1.979,3.057-3.689-1.529-4.229-.809h-5.218l-3.958.54-3.149,1.798-2.969-19.432-17.274-13.855-4.858,3.868z" fill="url(#e)"/>
  <path d="m320.91,95.634-10.255-15.923-4.052-21.503 5.849-21.501 17.813-19.972 26.899-8.817 28.071,2.969 25.818,8.636 17.815,14.304 12.056,20.065 6.387,28.428v17.004l-2.521,26.63-14.574,24.65-19.072,13.135-21.142,3.509-21.684-4.318-23.119-17.994-15.295-21.051 12.955,6.475 9.626,6.12 9.986,4.497 8.188,1.35 8.095.181 7.47-.181 6.387-1.35 4.587-1.619 3.6-1.98 3.6-2.248 3.328-2.25 2.699-2.699 2.068-2.699 1.888-3.328 1.712-4.68 .809-6.476 .988-8.277-.538-6.658-1.709-5.937-2.79-5.399-2.247-3.149-2.971-2.519-3.866-1.98-4.68-1.707-4.59-.812h-5.307l-6.839,1.89-9.985,3.868-13.677,9.536-1.797,15.295 2.969,14.395-15.474-16.285-23.53-9.626z" fill="url(#d)"/>
  <path d="m136.75,73.772 .899,2.07v1.619l-.54,4.228-.9,3.511-1.439,5.578-1.62,5.668-2.519,4.678-3.868,6.927-3.239,5.487-5.038,7.018-6.208,7.108-4.768,4.318-3.509,2.878-3.598,2.43-4.139,2.519-3.149,1.438-1.709.902-1.439,1.797-.361,2.161 .361,2.699 .629,2.878 .9,3.238 .899.99 .99.181 .629-2.34 .9-1.35 1.35-1.078 10.077-4.859 6.117-3.42 4.949-3.238 5.668-4.949 4.048-4.318 4.948-5.306 4.229-5.04 3.688-5.937 2.698-5.939 2.789-6.927 1.261-5.399 1.079-6.837-.18-3.778-.631-3.149-1.258-2.069-1.979-1.979-7.02-4.407z" fill="url(#c)"/>
  <path d="m65.496 42.646-12.955 8.994-10.977 7.917-2.789 2.88-2.159 4.047-2.699 5.399-5.307 12.417-3.509 4.047-4.318 3.959-13.586 10.524 12.595-8.008 4.139-3.059 3.958-3.418 3.42-3.418 2.248-4.587 3.418-8.727 2.339-4.14 2.7-3.868 2.25-3.149 3.059-2.969 6.207-4.947 11.966-9.894z" fill="url(#b)"/>
  <path d="m.541,106.25 2.068-.99 2.609-1.259h3.779l3.688,1.259 3.599,1.171 1.889,1.979v2.159l-1.889,1.709-2.61.179-2.609-.357-3.148-.63 .09,2.338 .179,3.33 2.79,3.239 1.979,1.708 3.329,1.171 2.969.81h3.868l5.488-.631 5.488-.898 4.587-.899 20.333-6.299 1.799-.09 .63,1.259-.45,1.35-1.529.721-8.997,2.159-4.409,1.259-5.127,1.259-4.768,1.35-4.499.631-4.317.628h-4.679l-4.768-.09-4.498-.81-2.7-1.078-2.248-1.081-2.25-2.609-1.529-6.208-2.07-1.888-1.439-1.171-1.169-1.62v-1.8l.541-1.26z" fill="url(#a)"/>
  <path d="m27.081,133.24 2.698,1.079 3.689.361h3.239l3.328-.361 4.048-.898 3.689-1.169 6.207-3.061 6.478-2.159 4.499-.81 4.409-.719 4.948.538 5.037.902 4.139,2.157 9.626,7.917-8.906-9.986-2.609-1.888-4.048-1.44-3.779-.809h-3.689l-3.958.269-5.308,1.259-6.388,2.25-8.637,2.338-5.398,1.44-3.509.362h-2.879l-4.229-.631-6.297-1.8 1.44,2.969 2.16,1.89z" fill="url(#aj)"/>
  <path d="m97.254,157.08-.269,1.8 1.708,8.008 3.959,11.514 3.329,7.741 3.329,7.733 2.339,4.051 2.88,4.138 2.698,3.599 3.959,3.328 21.142,13.764-13.134-10.613-5.669-5.218-4.408-4.86-4.588-6.385-3.869-7.47-3.689-8.817-2.068-5.847-1.259-5.308-1.259-9.536-.99-1.89-2.339-.45-1.797.73z" fill="url(#ai)"/>
  <path d="m203.68,230.32 8.547-1.081 8.277-2.071 8.726-3.595 7.018-4.051 14.126-12.055 7.375-4.856 7.289-2.609 7.287-2.699 6.567-1.98 8.008-2.161-9.986-.086-5.577.629-5.67,1.081-4.229,1.619-4.047,1.528-14.035,11.246-8.817,5.309-10.705,4.856-7.828,2.523-7.377,1.438-12.505,1.528-4.948.361-.27,4.856 5.397.629 7.38-.38z" fill="url(#ah)"/>
  <path d="m135.13,75.573-14.574-12.507-4.948-3.597-3.779-4.858-1.978-5.399-2.16-4.409-2.339-5.037-3.418-5.849-4.679-6.118-8.187-7.556-16.101-14.125-6.567-6.118-2.609.09-2.069,1.71-.9,2.878v3.958l.271,11.967 1.078,8.367 .361,6.658 .989,7.106 1.08,3.328 1.529,3.059 .9-6.656-.271-3.958-.989-3.599-.45-8.008v-9.896l-.269-5.038-.631-4.858 .631-2.43 1.979-.898 1.979.629 13.855,14.485 11.966,13.314 3.778,6.027 3.329,5.128 1.439,4.14 1.71,4.768 1.349,3.778 1.889,1.98 2.07,2.069 4.857,3.33 9.987,5.577 9.89,6.568z" fill="url(#ag)"/>
  <path d="m64.416,28.79-14.574-11.065-5.937-4.949-2.7.541-2.429,1.348-.27,2.79 1.081,4.409 1.889,4.409 1.979,6.387 2.159,5.127 4.768,15.835 3.779-1.98-9.625-28.79-1.081-5.125 1.081-1.89 5.037,3.868 14.845,12.955v-3.87z" fill="url(#af)"/>
  <path d="m150.69,87.807 7.287,4.049 3.6,2.7 3.598,2.069 2.88.359 9.086.181 4.318.541 3.868.897 3.42,1.711 14.844,9.536-12.685-4.23-4.679-1.079-3.148-.181-2.789.181-7.288.271h-2.339l-1.979-.271-2.788-1.619-4.318-4.139-5.309-4.769-3.329-3.599-2.25-2.606z" fill="url(#ae)"/>
  <path d="m201.17,103.64 13.314,1.259h7.737l8.369-.9 6.746-.9 8.905-1.528 8.277-1.621 20.691-3.868 11.788-1.709 6.475-.36 7.199-.179 9.177.179 4.768.36 4.678.99 7.648,1.8 5.487,1.619 5.668,2.249 4.408,2.431 5.489,3.416 6.566,5.668 4.137,4.14 3.871,4.68 6.656,9.625-6.837-.99-4.409-6.656-4.587-7.108-6.206-6.927-4.052-3.509-4.408-2.428-8.006-3.059-9.986-2.79-7.377-1.169-8.639-.721-5.938-.27-7.736.629-6.478.902-7.736,1.259-15.566,3.688-13.312,2.79-10.617,2.519-12.055,2.159-4.319.269-4.319-.269-7.376-2.519-8.09-3.15z" fill="url(#ad)"/>
  <path d="m358.43,113.9-3.87-7.916-.99-4.409v-5.309l1.8-4.858 3.509-3.868 4.499-2.7 5.037-2.247 4.589-.99 4.678-.45 4.588.181 3.33.808 4.948,1.44 3.957,2.159 2.699,1.98 2.7,3.328 2.068,4.587 .812,4.949v4.678l-.9,5.13-1.352,4.497-2.699,5.13-2.967,4.138-4.318,3.509-5.308,2.968-7.199,2.159-7.556.541-6.837-.362-6.748-1.169-7.378-3.149 12.684,2.251 7.918.359 4.499-.721 4.59-.809 4.766-1.89 3.509-1.8 3.33-3.328 2.34-3.239 1.709-4.047 .9-4.678-.271-4.768-.899-5.128-1.528-3.78-1.891-2.699-2.428-2.069-4.409-2.428-3.689-.812-3.147-.179-2.88.179-3.509.361-3.059,1.169-2.879,1.709-2.608,2.25-2.338,2.968-1.533,5.668-.26,10.71z" fill="url(#ac)"/>
  <path d="m288.97,157.35-2.969,4.587-1.262,5.758-.267,5.038v5.666l3.057,9.088 2.608,6.027 7.559,11.246 8.458,9.265 19.972,18.806 4.318,3.599 5.037,4.409 6.209,4.137 6.655,4.047 4.771,5.58 3.147,5.938-1.979-9.898-1.979-3.057-2.79-3.238-8.188-5.76-6.206-3.509-5.577-3.509-6.118-5.847-7.377-6.656-13.316-12.146-6.478-8.636-4.856-8.641-2.43-7.914-.9-6.298 .9-7.107 2.158-5.13 2.7-2.428 .628-2.159 .271-1.531-1.53-1.438-2.069-.361-2.15,2.07z" fill="url(#ab)"/>
  <path d="m376.6,167.88 .359,9.268-.721,4.947-1.619,4.59-1.528,4.228-1.8,4.228-4.228,9.626-1.709,4.589-.722,2.971 .179,2.966 3.509,9.266-.81-8.004 .181-3.061 .72-2.338 2.971-6.389 3.237-6.747 2.88-6.656 2.069-6.208 1.53-7.469 .988-8.997-5.49-.82z" fill="url(#aa)"/>
  <path d="m377.86,240.3 10.889,11.607 1.08,2.247 .538,1.262-.271,1.619-.72,2.428-3.868,11.969-1.53,6.656-1.528,10.974-2.609,15.297-3.147,17.992-1.352,1.891-1.979,1.976-2.697,1.623-3.061,1.167-8.637,2.428 11.067-6.655 2.338-1.891 .989-1.709 3.688-21.41 1.62-20.691 .9-6.39 1.797-7.198 1.621-6.837 .359-2.156-.81-2.071-2.07-4.409-10.255-19.61 7.64,9.88z" fill="url(#y)"/>
  <path d="m324.42,245.07 2.519,8.274 3.868,4.771 2.788,4.138 1.44,2.971 .269,1.438-.447,1.619-3.33,4.408-10.524,19.073-9.898,18.624-1.35,2.79-3.418,1.705-7.739,3.604 4.68-4.59 2.338-1.709 1.712-2.699 5.486-10.165 5.399-10.53 6.656-12.236 3.239-4.856 1.621-4.68v-2.785l-1.621-2.519-3.688-6.39-1.08-6.117-.99-5.761-.448-12.684 2.51,14.32z" fill="url(#x)"/>
  <path d="m56.589,80.88-2.879-.719-2.159-.179-1.889.269-1.709,1.619-1.08,1.619-.54,1.98 .27,2.069 1.35,1.438 2.428.99 2.07.721 2.34-.181 2.249-1.259 2.159-2.968 2.429-3.869-5.039-1.53z" fill="url(#w)"/>
  <path d="m128.65,218.53 3.06,26.362-2.07,15.835-2.788,17.363-1.799,9.175-.901,4.318-1.708,4.228-.899,2.433-2.07,1.528-5.307,1.438-4.77,2.161-3.058,1.528-2.699,2.248-1.979,1.442-1.259,1.709-.27,1.171 .27,1.709 1.17,2.609-1.979-1.171-1.17-2.342 .089-1.977 2.429-2.79 7.018-4.86 4.769-2.609 4.948-2.966 1.26-1.619 1.529-4.771 1.08-4.318 1.259-4.766 4.769-27.262 2.068-17.901-.99-17.9z" fill="url(#v)"/>
  <path d="m131.8,313.8 2.609-1.171 2.52-2.429 1.8-3.237 .539-2.609-.539-3.418 .899-7.831 .899-3.238 2.34-3.689 3.147-3.595 11.066-34.908-4.139-8.278-2.339,17.454-5.938,21.233-2.068,4.408-4.679,7.198-.989,4.138-.18,4.047-.271,4.681 .45,2.966 .27,2.429-1.26,2.251-4.14,3.6z" fill="url(#u)"/>
  <path d="m185.33,203.77 2.879,11.246 .361,9.627-1.44,13.226-1.62,7.917-1.619,13.136-1.17,12.593-.359,16.916 .9,12.146 1.438,14.754 .9,6.656-1.169,3.961-2.159,3.418-3.689,3.776 5.038-.538 1.44-.539 1.35-.99 1.438-2.789 .81-3.509v-3.866l-.45-5.128-1.079-4.318-1.529-10.979-.9-9.717 1.17-18.621 .36-8.817 1.71-11.064 1.799-13.588 1.259-9.445 .181-8.637-.27-6.208-1.17-5.038-1.71-3.151-2.7-2.43z" fill="url(#t)"/>
  <path d="m147.55,209.54 3.238,7.913 3.688,8.46 2.43,8.727 2.968,14.122 2.97,16.105 1.169,7.557 .541,8.278v21.682l-.541,11.427-.81,2.066-1.529,1.442-4.678,2.338-4.318,2.79-3.149,2.789-4.229,6.656 2.79-8.278 1.8-2.338 2.788-1.619 5.038-3.062 2.879-1.976 1.079-3.509 .359-10.165-.089-19.344-2.07-16.735-2.158-10.165-2.249-8.816-2.97-12.055-6.116-16.377-2.881-7.556-6.116-16.016-5.219-21.949 4.769,11.693 3.329,10.617 7.29,15.32z" fill="url(#s)"/>
  <path d="m261.8,202.88 2.338,12.955 .719,8.188 1.621,5.038 2.34,3.237 4.676,5.489 4.408,2.971 4.59,3.237 5.127,3.062 7.737,5.937 4.77,2.695 3.51,3.871 2.337,4.77 .81,3.866-2.159,13.407 4.05-8.637 1.169-2.79 .179-4.228-.9-3.6-2.787-4.68-4.23-5.127-4.766-5.485-4.68-3.513-5.485-2.786-5.399-3.419-7.107-5.489-3.868-4.228-3.959-7.108-3.509-9.808-1.53-7.82z" fill="url(#r)"/>
  <path d="m110.48,307.33-3.509,2.07-3.508,2.52-2.519,2.428 6.568-2.967 3.509-1.98 .18-1.441-.72-.63z" fill="url(#q)"/>
  <path d="m114.08,309.4-4.048,3.058-.541,1.441 5.039-1.979 .539-.99-.27-.9-.72-.63z" fill="url(#p)"/>
  <path d="m153.93,326.49-1.26.719-5.488,7.831 7.558-5.579 .989-1.171v-1.258l-1.8-.54z" fill="url(#n)"/>
  <path d="m160.32,327.93-5.578,9.084 7.647-7.466v-1.261l-1.26-.538-.81.19z" fill="url(#m)"/>
  <path d="m282.32,306.52-3.509,1.98-3.51,2.609-2.519,2.428 6.568-2.966 3.509-2.071 .09-1.442-.63-.54z" fill="url(#l)"/>
  <path d="m285.82,308.5-3.957,3.147-.542,1.442 5.039-1.98 .54-1.081-.271-.899-.81-.63z" fill="url(#k)"/>
  <path d="m342.77,323.07-1.26.72-5.486,7.827 7.558-5.576 .988-1.171v-1.261l-1.8-.54z" fill="url(#j)"/>
  <path d="m349.16,324.6-5.577,8.998 7.646-7.47v-1.258l-1.26-.538-.81.27z" fill="url(#i)"/>
  <path d="m319.56,94.825-7.377-14.483-2.519-6.839-1.262-6.837-.359-8.098 1.259-8.636 3.69-9.625 3.777-5.849 5.939-7.917 4.318-4.228 4.946-3.69 8.728-4.409 7.736-2.519 6.027-1.259 5.489-.45 7.198-.269 7.466.899 6.567,1.079 8.008,2.25 8.726,2.431 9.897,4.047 7.918,4.589 5.756,4.228 4.408,4.678 5.58,6.208 4.228,6.658 3.328,6.656 2.79,8.458 1.8,9.446 1.257,9.808 .543,9.536-.81,14.126-.99,7.287-1.8,8.277-1.8,6.568-3.059,6.747-3.421,5.668-3.866,5.399-4.499,4.137-5.758,4.318-7.197,4.14-6.927,2.519-6.479,1.888-8.727,1.261-9.715-.271-11.157-2.25-7.196-2.878-5.397-3.418-4.68-3.599-5.396-5.668-5.487-7.377-4.68-7.467-2.699-3.597-3.147-2.79-3.6-1.259-16.915-2.069 12.688,3.147 3.597.9 3.24,1.89 2.787,2.428 3.149,4.68 5.128,8.815 4.68,6.479 4.856,5.487 5.668,6.206 5.759,3.871 6.117,3.147 7.199,2.163 7.196.805 9.086-.538 7.557-.99 7.018-1.439 7.107-2.337 5.759-3.33 6.478-4.407 4.049-3.33 4.858-4.409 4.678-6.387 3.868-6.746 2.881-7.289 2.066-8.096 1.352-6.478 .99-9.177v-7.736l-.271-8.096-.719-7.92-1.619-7.646-1.62-7.468-1.44-7.018-2.699-7.287-2.788-6.118-2.699-4.947-2.431-3.511-4.856-5.307-5.218-5.308-5.128-3.688-5.309-2.971-6.298-3.418-9.537-3.778-8.276-2.34-6.388-1.619-5.668-1.259-9.086-1.169-7.289-.181-6.565.719-5.759,1.259-8.096,2.431-6.928,3.147-8.548,6.208-5.668,5.58-4.678,5.847-4.587,7.556-3.149,7.379-1.621,7.196-.538,8.099 .899,9.536 2.788,7.465 3.688,5.758 3.33,4.68 4.5,5.33z" fill="url(#h)"/>
 </g>
</svg>
