<?xml version="1.0" encoding="UTF-8"?>
<svg viewBox="0 0 744.09447 1052.362179" xmlns="http://www.w3.org/2000/svg">
 <g transform="translate(-38.386 -161.62)" stroke="#000">
  <path d="m577.14 439.51s-70-61.429-232.86-64.286-250 48.571-250 48.571 55.714 118.57 225.71 117.14c172.95-1.4533 257.14-95.714 257.14-101.43z" fill-rule="evenodd"/>
  <path d="m341.43 532.36s5.7143 5.7143-1.4286 60-17.143 234.29 8.5714 287.14 105.71 169.02 192 170.86c132.86 2.8571 160.28-84.761 159.43-150.86-1.4286-110-64.286-197.14-145.71-160s-61.429 82.857-34.286 91.429 27.143-41.429 27.143-41.429 5.7143-11.429 10-5.7143 15.714 82.857-45.714 62.857-55.714-108.57 51.429-131.43 160.31 100.65 161.43 184.29c1.4286 107.14-44.286 151.43-44.286 151.43l-398.86 1.4286-11.429-191.43-8.5714 21.429 3.7143 170-18.571 1.4286s-13.714-255.71 24.857-334.29 54.571-185.71 54.571-185.71l15.714-1.4286z" fill-rule="evenodd"/>
  <path d="m525.93 408.07 29.772-135.7s-16.318 70.724-81.314 116.43c-31.531 22.173-79.07 37.367-133.05 37.834-59.502 0.51436-105.71-13.129-141.15-32.209-78.98-42.525-104.47-112.06-104.47-112.06l43.17 128.55 387.04-2.8568z" fill-rule="evenodd" stroke-width="1.0207"/>
  <path d="m328.57 502.36 17.143-27.143-34.286 1.4286 17.143 25.714z" fill="#fff" fill-rule="evenodd"/>
  <path transform="translate(12 6.2857)" d="m332.86 518.08a9.2857 8.5714 0 1 1 -18.571 0 9.2857 8.5714 0 1 1 18.571 0z" fill="#fff" stroke-linejoin="round" stroke-width="3.7"/>
  <g transform="matrix(.99719 .074946 -.074946 .99719 41.252 -14.588)" fill-rule="evenodd">
   <path d="m126.43 427.96s34.286-10 87.143 2.8572 82.857 37.143 82.857 37.143-53.409 8.4469-97.143-1.4286c-44.286-10-72.857-34.286-72.857-38.571z" fill="#ff0"/>
   <path d="m200.8 472.26s-1.5361-10.522 1.9296-26.111 8.9382-24.056 8.9382-24.056 0.9216 16.231-1.7886 29.146c-2.7444 13.078-8.1949 21.116-9.0792 21.02z" stroke-width=".24964"/>
  </g>
  <g transform="matrix(.99811 -.061402 .061402 .99811 -36.612 29.947)" fill-rule="evenodd">
   <path d="m535.71 429.22s-34.286-10-87.143 2.8572-82.857 37.143-82.857 37.143 53.409 8.4469 97.143-1.4286c44.286-10 72.857-34.286 72.857-38.571z" fill="#ff0"/>
   <path d="m453.91 471.73s1.5361-10.522-1.9296-26.111-8.9382-24.056-8.9382-24.056-0.9216 16.231 1.7886 29.146c2.7444 13.078 8.1949 21.116 9.0792 21.02z" stroke-width=".24964"/>
  </g>
 </g>
</svg>
