<?xml version="1.0" encoding="UTF-8"?>
<svg enable-background="new 0 0 131.628 272.667" viewBox="0 0 131.628 272.667" xmlns="http://www.w3.org/2000/svg">
 <path d="m103.601,111.297 2.16,24.624 6.768,15.083 4.608,32.652 8.315,9.865-1.512,13.535-8.028,13.859 .612,16.021 13.248,5.832-.288,8.963-14.796-1.871v7.092l2.16,5.543-6.48,9.252-10.764.9-6.769-6.768 4.608-9.863-1.836-13.861-12.348-6.443-3.673-7.092-12.023-.324-1.224,24.336-5.868,12.313-6.156,7.703-15.372-.287-3.096-10.801 12.636-3.061 1.224-5.867-13.86-1.836-.936-8.316 4.032-5.543-.648-40.033 9.864-15.084 3.708-44.963 7.38-6.804-1.224-20.016-13.86-7.992 12.312-26.172 12.312-3.384 13.248-7.416 20.628.612 4.933,7.092 20.016,1.224 3.996,12.96-8.604,14.472-19.403,9.864z" fill-rule="evenodd" stroke="#000" stroke-miterlimit="10" stroke-width=".036"/>
 <path d="m125.813,91.857-11.809,9.18-10.655,2.304 11.664-6.624 13.14-11.34-3.672-.828-6.048-9.864-13.177-1.116-4.212-6.48-19.296-.18-11.628,7.452 8.136,14.364 3.816,25.272-7.344,4.5-15.444-7.488 1.476,20.304-6.3,5.976-2.664,30.131-1.008,16.164-10.332,14.977 .864,29.592-.18,10.008-3.312,4.465-.504,5.508 11.952,1.836 1.008-25.813-1.476-20.627 4.464,10.656-.972,22.318-2.664,23.365-10.836,2.809 1.656,7.486 11.988.504 11.34-17.459 1.98-26.965 14.796.182 5.832,8.818 9.468,3.816 .504-26.783 1.008-7.309 1.656,19.297-1.477,17.459 1.98,14.148-4.14,8.459 4.319,6.156 8.316-.143 6.3-8.174-1.476-3.814 .324-17.461 .323-21.455-.647-26.316 2.34-.145 .144,23.436 6.336-10.619 1.477-12.168-7.956-9.469-2.844-18.971-1.98-14.365-7.02-15.155-1.98-26.1 19.8-8.496 4.646-9.215z" fill="#e6d46b" fill-rule="evenodd" stroke="#000" stroke-miterlimit="10" stroke-width=".036"/>
 <path d="m92.225,71.625-8.316,9.144 6.66-2.16 4.464,1.152 3.024-3.312-1.836-4.32-3.996-.504z" fill-rule="evenodd" stroke="#000" stroke-miterlimit="10" stroke-width=".036"/>
 <path d="m67.924 74.433-10.151 3.492-10.476 24.156 27.251 14.436 5.005-3.312-3.816-24.948-7.813-13.824z" fill="#e6d46b" fill-rule="evenodd" stroke="#000" stroke-miterlimit="10" stroke-width=".036"/>
 <path d="m116.67 238.88 11.305 4.68-0.469 6.805-11.34-1.656 0.504-9.829z" fill="#e6d46b" fill-rule="evenodd" stroke="#000" stroke-miterlimit="10" stroke-width=".036"/>
 <path d="m107.78 133.11-9.288 13.211-17.496 7.273-0.647 18.504-5.652-19.801-10.224-2.34-12.24-15.516-4.968 32.364-12.888 21.168-3.276 29.412 23.112-12.564 17.856 16.201 21.492-10.584h23.472l10.908-13.537-9.612-17.531-3.96-36.684-6.589-9.576z" fill-rule="evenodd" stroke="#000" stroke-miterlimit="10" stroke-width=".036"/>
 <path d="m83.98 154.6 4.284 8.928 0.144 5.004 0.504 15.805 14.22-23.473-4.644-11.232-14.508 4.968z" fill="#000080" fill-rule="evenodd" stroke="#000" stroke-miterlimit="10" stroke-width=".036"/>
 <path d="m71.74 154.28-10.26-1.98-2.628 8.244-0.324 19.836 14.868-4.969-1.656-21.131z" fill="#000080" fill-rule="evenodd" stroke="#000" stroke-miterlimit="10" stroke-width=".036"/>
 <path d="m59.824,149.961-6.264-8.244-2.664,23.473-14.868,23.795-1.98,22.789 16.524-8.244 1.98-8.281 4.32,8.605 15.192,13.535 3.312-10.584 1.98,8.279 13.212-6.299 1.656-11.232 5.939,10.584 15.876-1.332 9.576-10.225-9.576-16.883-1.332-34.668-3.96-7.957-9.576,10.584 7.272,12.564-19.512,30.061-.324-16.848-2.628-10.225-1.332,13.859-7.272-7.596 .324,6.947-20.484,6.59 .972-22.465 3.637-10.582z" fill="#000080" fill-rule="evenodd" stroke="#000" stroke-miterlimit="10" stroke-width=".036"/>
 <path d="m111.412,61.725 9.9,1.979 1.979,4.644-10.26,2.052-35.676-.972-16.847,17.749-25.452,16.2-15.228-13.572 21.492-17.82 15.876-6.192-13.536-25.812-15.228-22.464-28.404-.972 7.92-16.524 41.652,9.9 25.776,29.088 20.16,22.788 15.876-.072z" fill-rule="evenodd" stroke="#000" stroke-miterlimit="10" stroke-width=".036"/>
 <path d="m114.04 68.097-36.359-2.664-13.861 13.896-22.824 15.876-9.252-1.008-3.312-5.616 11.916-12.563 24.444-10.224-16.523-23.473-14.545-23.472 4.968-5.616-14.22 1.98-15.876-1.98 2.988-9.936 36.36 8.604-6.3 8.928 8.928-3.96-3.312 7.92 7.632-2.952 19.476 22.14 19.512 19.476 23.148 1.008 2.304 1.332-5.292 2.304z" fill="#000080" fill-rule="evenodd" stroke="#000" stroke-miterlimit="10" stroke-width=".036"/>
 <path d="m80.236,57.009 5.364-4.212-8.316-.756-2.376-6.876-2.592,8.352-7.848-.504 8.424,3.924v9.036l4.031-7.452 4.86,4.392-1.547-5.904z" fill-rule="evenodd" stroke="#000" stroke-miterlimit="10" stroke-width=".036"/>
 <path d="m79.048,56.037 3.168-2.304-5.508-.108-1.691-4.896-1.188,5.508-5.364-.396 5.688,2.772-.612,5.436 2.844-5.076 3.601,3.24-.938-4.176z" fill="#ff0" fill-rule="evenodd" stroke="#000" stroke-miterlimit="10" stroke-width=".036"/>
 <path d="m109.97 191.18 5.399-4.213-8.352-0.721-2.34-6.875-2.593 8.316-7.884-0.504 8.424 3.924v9.072l4.032-7.488 4.86 4.428-1.546-5.939z" fill-rule="evenodd" stroke="#000" stroke-miterlimit="10" stroke-width=".036"/>
 <path d="m108.784,190.244 3.168-2.34-5.508-.107-1.656-4.859-1.224,5.508-5.328-.396 5.652,2.736-.612,5.436 2.844-5.076 3.601,3.24-.937-4.142z" fill="#ff0" fill-rule="evenodd" stroke="#000" stroke-miterlimit="10" stroke-width=".036"/>
 <path d="m72.641,196.473 5.363-4.211-8.315-.721-2.376-6.877-2.592,8.316-7.848-.504 8.424,3.924v9.037l3.996-7.453 4.896,4.428-1.548-5.939z" fill-rule="evenodd" stroke="#000" stroke-miterlimit="10" stroke-width=".036"/>
 <path d="m71.452,195.537 3.168-2.34-5.508-.109-1.692-4.859-1.188,5.473-5.364-.359 5.688,2.734-.612,5.438 2.844-5.076 3.564,3.24-.9-4.142z" fill="#ff0" fill-rule="evenodd" stroke="#000" stroke-miterlimit="10" stroke-width=".036"/>
 <path d="m49.168,179.949 5.364-4.213-8.316-.719 .144-5.76-4.14,7.234-1.836,2.412 1.44.973v9.035l4.032-7.451 4.86,4.428-1.548-5.939z" fill-rule="evenodd" stroke="#000" stroke-miterlimit="10" stroke-width=".036"/>
 <path d="m47.98,179.014 3.168-2.342-5.508-.107-.432-2.988-3.42,5.438 1.296.539-.612,5.436 2.844-5.076 3.6,3.24-.936-4.14z" fill="#ff0" fill-rule="evenodd" stroke="#000" stroke-miterlimit="10" stroke-width=".036"/>
 <path d="m54.1,85.089 5.364-4.176-8.316-.756-2.376-6.876-2.556,8.352-7.884-.54 8.424,3.924v9.072l4.032-7.452 4.104,2.844-.792-4.392z" fill-rule="evenodd" stroke="#000" stroke-miterlimit="10" stroke-width=".036"/>
 <path d="m52.912,84.153 3.168-2.34-5.508-.072-1.692-4.896-1.188,5.508-5.364-.396 5.688,2.772-.612,5.4 2.844-5.076 2.448,1.908 .828-.54-.612-2.268z" fill="#ff0" fill-rule="evenodd" stroke="#000" stroke-miterlimit="10" stroke-width=".036"/>
 <path d="m50.176,36.201 5.364-4.212-8.316-.756-2.376-6.876-2.592,8.352-3.744-.828 4.32,4.212 2.916,6.156 1.08-4.536 4.896,4.392-1.548-5.904z" fill-rule="evenodd" stroke="#000" stroke-miterlimit="10" stroke-width=".036"/>
 <path d="m48.952,35.229 3.168-2.34-5.472-.072-1.692-4.896-1.188,5.508-1.188-.36 1.476,2.736 1.26,2.124 .972-1.764 3.6,3.204-.936-4.14z" fill="#ff0" fill-rule="evenodd" stroke="#000" stroke-miterlimit="10" stroke-width=".036"/>
 <path d="m115.7 159.86-0.576-3.924-1.476-1.08-2.376-6.877-2.592 8.316-7.849-0.504 8.424 3.924v9.035l4.032-7.451 2.916 4.283-0.503-5.722z" fill-rule="evenodd" stroke="#000" stroke-miterlimit="10" stroke-width=".036"/>
 <path d="m113.572,158.781v-2.377h-.504l-1.692-4.859-1.188,5.473-5.364-.396 5.688,2.771-.612,5.436 2.844-5.076 .72.721 .108-1.693z" fill="#ff0" fill-rule="evenodd" stroke="#000" stroke-miterlimit="10" stroke-width=".036"/>
</svg>
