<?xml version="1.0" encoding="UTF-8"?>
<svg viewBox="0 0 1019.9532 580.68286" xmlns="http://www.w3.org/2000/svg">
 <defs>
  <filter id="b">
   <feGaussianBlur stdDeviation="7.72471"/>
  </filter>
  <filter id="c">
   <feGaussianBlur stdDeviation="4.81239"/>
  </filter>
  <filter id="a" x="-.1633" y="-.05658" width="1.3266" height="1.1132">
   <feGaussianBlur stdDeviation="10.4159"/>
  </filter>
 </defs>
 <g transform="translate(167.82 -274.68)">
  <path d="m144.76 556.91c2.4625 73.152 1.3099 145.41-1.8306 217.15-8.3646-3.6793-46.892-8.5498-55.256 3.0305-9.6775 19.985-5.3238 31.438 1.0102 43.417l70.562-2.0204c-8.3719-10.973 6.4654-44.29 14.142-47.463 6.1438-77.246 28.63-136.65 25.223-208.05" fill="#fff" fill-rule="evenodd" stroke="#000" stroke-width="7.2"/>
  <path d="m426.66 384.33c-5.5409 0.0306-10.963 0.9375-15.5 0.9375-18.146 0-73.314 43.988-55.701 145.7s51.454 115.53 68.64 174.11c7.6761 29.602-4.922 58.125 2.9048 73.375-10.242-3.3266-46.51-6.0766-53.969 4.25-9.6775 19.985-5.3339 31.427 1 43.406l72.562-2c-5.6672-7.4278-0.68281-25.063 5.5-36.688l0.1875-0.0312c13.897-28.188 17.727-85.384 7.3078-120.82-15.674-83.1 37.872-104.36 45.005-186.77s-61.315-95.56-77.938-95.468v-5e-5z" fill="#fff" fill-rule="evenodd" stroke="#000" stroke-width="7.2007"/>
  <path d="m428.41 384.98c-5.5409 0.0306-10.963 0.9375-15.5 0.9375-18.146 0-73.314 43.988-55.701 145.7s51.454 115.53 68.64 174.11c7.676 29.602-4.9221 58.125 2.9048 73.375-10.242-3.3266-46.51-6.0767-53.969 4.25-9.6775 19.984-5.3339 31.427 1 43.406l72.562-2c-5.6671-7.4278-0.6828-25.063 5.5-36.688l0.1875-0.031c13.897-28.188 17.727-85.384 7.3078-120.82-15.674-83.1 37.872-104.36 45.005-186.77s-61.315-95.56-77.938-95.468v-2.5e-4z" fill-rule="evenodd" filter="url(#a)" opacity=".08696" stroke="#000" stroke-width="7.2007"/>
  <path d="m574.42 409.73c79.275 40.421 185.54-79.432 274.11-75.138-87.524 2.9075-186.13 124.8-273.88 101.4" fill="#f2f2f2" fill-rule="evenodd" stroke="#000" stroke-width="7.2"/>
  <path d="m142.85 558.42c2.4625 73.152 1.3099 145.41-1.8306 217.15-8.3646-3.6793-46.892-8.5498-55.256 3.0305-9.6775 19.985-5.3238 31.438 1.0102 43.417l70.562-2.0204c-8.3719-10.973 6.4654-44.29 14.142-47.463 6.1438-77.246 28.63-136.65 25.223-208.05" fill-rule="evenodd" filter="url(#c)" opacity=".13043" stroke="#000" stroke-width="7.2"/>
  <path d="m21.875 278.28c-37 0.0146-53.276 12.344-74 37.531-73.767 4.0358-112.43-23.06-112.09 20.094 0.35614 45.444 64.994 81.778 144.34 81.156 21.051-0.16498 41.021-2.8878 59-7.6875 0.02229-6e-3 0.04024-0.0256 0.0625-0.0312 3.4485 0.065 6.8277-0.0795 10.156-0.375 11.245 57.105 35.664 117.98 57.719 136.34 36.196 30.138 89.406 60.727 179.66 52.375 57.048-5.2794 119.73-34.437 170.56-69.188 0.13583 0.83369 0.26052 1.6584 0.40625 2.5 17.613 101.71 51.439 115.55 68.625 174.12 7.6761 29.602-4.9206 58.125 2.9062 73.375-10.242-3.3266-46.51-6.0766-53.969 4.25-9.6775 19.985-5.3339 31.427 1 43.406l72.562-2c-5.6672-7.4278-0.68281-25.063 5.5-36.688l0.1875-0.0312c13.897-28.188 17.732-85.373 7.3125-120.81-15.674-83.1 37.867-104.37 45-186.78-2.452-81.672-45.452-99.212-114.62-98.969-44.529 2.4498-72.327-3.0869-133.22 6.1473-58.053-0.18232-126.96 35.867-165.88 33.099s-63.008-49.132-64.844-82.059-48.333-56.586-94.188-59.375c-4.2989-0.2615-8.3599-0.40776-12.188-0.40625z" fill="#fff" fill-rule="evenodd" stroke="#000" stroke-width="7.2"/>
  <path d="m390.69 530.62c-0.0319 8.0892-22.423 11.693-29.131 8.5934 0.97387 13.976-32.006 14.244-33.957 5.5334s25.383-17.636 33.839-10.683c10.609-15.833 27.298-12.155 29.249-3.444z" fill-rule="evenodd" stroke="#000" stroke-linecap="round" stroke-width="7.2"/>
  <path d="m196.64 564.5c2.4625 73.152 1.3099 145.41-1.8306 217.15-8.3646-3.6793-48.892-8.5498-57.256 3.0305-9.6775 19.985-5.3238 31.438 1.0102 43.417l72.562-2.0203c-8.3719-10.973 6.4654-44.29 14.142-47.463 6.1438-77.246 28.63-136.65 25.223-208.05" fill="#fff" fill-rule="evenodd" stroke="#000" stroke-width="7.2"/>
  <path d="m64.728 404.26c5.5737 28.306 30.434 57.637 40.594 82.031s21.88 37.902 31.906 46.25c35.784 29.794 75.682 31.828 165 23.562 56.078-5.1897 96.217-21.618 152.88-44.594l22.656-9.1875 4.9375 5.5938c0.1402 0.86048 2.2378 7.6766 2.375 8.4688 8.7452 50.502 15.539 88.687 28.237 111.98l31.969 74.576c4.0287 15.536-4.9289 29.833-6.1429 42.598s-0.59269 22.656 1.125 29.312l2 7.75-8.3125-2.6875-4.375-8.4375c-1.6574-7.8094-0.52436-16.839 0.40625-26.625 1.2058-12.68 2.3359-26.685-1.2812-40.719l-0.0312-0.0937c-8.4347-28.693-20.912-46.427-33.812-70.094-12.66-23.227-25.458-52.104-34.312-101.47-50.36 33.641-111.34 61.569-167.66 66.781-91.183 8.4385-145.67-22.706-182.28-53.188-12.029-10.015-23.563-30.121-33.937-55.031-10.016-24.049-18.651-52.52-24.344-80.375" fill-rule="evenodd" filter="url(#b)" opacity=".17787"/>
  <path d="m34.718 379.84c-1.3411 12.761-44.708 18.663-96.863 13.182s-93.347-20.269-92.006-33.03" fill="#fff" fill-rule="evenodd" stroke="#000" stroke-width="3"/>
  <path transform="matrix(.9984 -.05651 .05651 .9984 244.93 -45.073)" d="m-240.37 344.25c0 8.3684-11.782 15.152-26.315 15.152s-26.315-6.7839-26.315-15.152 11.782-15.152 26.315-15.152 26.315 6.7839 26.315 15.152z" fill="#fff" fill-rule="evenodd" stroke="#000" stroke-width="7.2"/>
  <path transform="matrix(.96877 .24795 -.24795 .96877 428.8 3.9302)" d="m-319.21 405.86c0 7.8105-6.3316 14.142-14.142 14.142s-14.142-6.3316-14.142-14.142 6.3316-14.142 14.142-14.142 14.142 6.3316 14.142 14.142z" fill-rule="evenodd" stroke="#000" stroke-width="7.2"/>
  <path transform="matrix(.96877 .24795 -.24795 .96877 335.1 -151.43)" d="m-206.07 529.61c0 3.0684-2.4874 5.5558-5.5558 5.5558s-5.5558-2.4874-5.5558-5.5558 2.4874-5.5558 5.5558-5.5558 5.5558 2.4874 5.5558 5.5558z" fill="#fff" fill-rule="evenodd" stroke="#000"/>
  <path d="m122.84 319.44c-12.965-11.94-21.855-27.01-49.357-27.784-14.602 31.929-10.799 86.034-2.7611 101.16 0.12744 8.466 5.1345 10.893 12.879 6.0279 14.773-17.971 30.863-31.749 39.239-79.405z" fill="#fff" fill-rule="evenodd" stroke="#000" stroke-width="7.2"/>
  <path d="m151.01 825.22c-1.5227-8.5655-1.4539-16.932 0.83056-25.022" fill="none" stroke="#000" stroke-linecap="round" stroke-miterlimit="0" stroke-width="7.2"/>
  <path d="m101.79 816.9c-1.5227-8.5655-1.4539-16.932 0.83056-25.022" fill="none" stroke="#000" stroke-linecap="round" stroke-miterlimit="0" stroke-width="7.2"/>
  <path transform="translate(708.57 -248.57)" d="m-511.14 741.24c0 11.158-21.167 6.0609-32.325 6.0609s-18.183 5.0969-18.183-6.0609 7.0249-16.162 18.183-16.162 32.325 5.0046 32.325 16.162z" fill-rule="evenodd" stroke="#000" stroke-linecap="round" stroke-width="7.2"/>
  <path d="m-160.94 338.89c0.18887 24.099 58.701-22.164 35.243-24.226s-35.432 0.1272-35.243 24.226z" fill-rule="evenodd" stroke="#000" stroke-width="7.2"/>
  <path d="m-153.61 322.86c-1.5923 2.6229-0.41846 4.8536-3.0414 3.2613s-2.3758-3.3606-0.78356-5.9836 3.3393-3.1741 5.9622-1.5819-0.54502 1.6812-2.1373 4.3041z" fill="#fff" fill-rule="evenodd" stroke="#000"/>
  <path d="m385.13 822.68c-1.5227-8.5655-1.4539-16.932 0.83056-25.022" fill="none" stroke="#000" stroke-linecap="round" stroke-miterlimit="0" stroke-width="7.2"/>
  <path d="m486.69 820.61c-1.5227-8.5655-1.4539-16.932 0.83056-25.022" fill="none" stroke="#000" stroke-linecap="round" stroke-miterlimit="0" stroke-width="7.2"/>
  <path d="m235.46 540.04c0-11.158 21.167-6.0609 32.325-6.0609s18.183-5.0969 18.183 6.0609-7.0249 16.162-18.183 16.162-32.325-5.0046-32.325-16.162z" fill-rule="evenodd" stroke="#000" stroke-linecap="round" stroke-width="7.2"/>
  <path d="m284.91 454c0 11.158 2.4044 25.347-8.7534 25.347s-41.754-14.189-41.754-25.347 16.311 0.98043 27.468 0.98043 23.039-12.138 23.039-0.98043z" fill-rule="evenodd" stroke="#000" stroke-linecap="round" stroke-width="7.2"/>
  <path d="m428.26 564.36c11.158 0 25.347-2.4044 25.347 8.7534s-14.189 41.754-25.347 41.754 0.98043-16.311 0.98043-27.468-12.138-23.039-0.98043-23.039z" fill-rule="evenodd" stroke="#000" stroke-linecap="round" stroke-width="7.2"/>
  <path d="m438.04 641.47c0 1.9724-7.0858-2.7312-5.8929-0.35715 0.8856 1.7624-1.25 0.54387-1.25-1.4286s2.1347 0.89286 4.1071 0.89286 3.0357-1.0796 3.0357 0.89286z" fill-rule="evenodd" stroke="#000" stroke-linecap="round" stroke-width="7.2"/>
  <path d="m116.17 324.55c0 4.7421-1.9221 8.5863-4.2932 8.5863s0.25254-3.3391 0.25254-8.0812-2.6236-9.0914-0.25254-9.0914 4.2932 3.8442 4.2932 8.5863z" fill-rule="evenodd" stroke="#000" stroke-linecap="round" stroke-width="7.2"/>
  <path d="m75.139 304.34c0 4.7421 1.9221 8.5863 4.2932 8.5863s-0.25254-3.3391-0.25254-8.0812 2.6236-9.0914 0.25254-9.0914-4.2932 3.8442-4.2932 8.5863z" fill-rule="evenodd" stroke="#000" stroke-linecap="round" stroke-width="7.2"/>
  <path d="m89.516 304.34c0 4.7421-1.9221 8.5863-4.2932 8.5863s0.25254-3.3391 0.25254-8.0812-2.6236-9.0914-0.25254-9.0914 4.2932 3.8442 4.2932 8.5863z" fill-rule="evenodd" stroke="#000" stroke-linecap="round" stroke-width="7.2"/>
  <path d="m87.309 356.75c1.681 4.4342 1.2463 8.7101-0.97074 9.5506s-0.9475-3.2118-2.6284-7.646-5.6759-7.571-3.4588-8.4115 5.3771 2.0728 7.058 6.5069z" fill-rule="evenodd" stroke="#000" stroke-linecap="round" stroke-width="7.2"/>
  <path d="m79.796 347.59c-1.7987-4.3877-1.4784-8.6737 0.71548-9.5731s1.0329 3.1854 2.8316 7.5731 5.876 7.4168 3.6821 8.3162-5.4305-1.9285-7.2292-6.3162z" fill-rule="evenodd" stroke="#000" stroke-linecap="round" stroke-width="7.2"/>
  <path d="m42.45 384.69c-8.4859-11.212-17.68-2.2683-17.681-2.2681" fill="none" stroke="#000" stroke-width="3"/>
  <path d="m235.71 597.36c0 6.3118-5.7353 22.143-9.2857 22.143s-3.5714-15.831-3.5714-22.143 2.8782-11.429 6.4286-11.429 6.4286 5.1167 6.4286 11.429z" fill-rule="evenodd" stroke="#000" stroke-linecap="round" stroke-width="3"/>
  <path d="m187.14 601.29c0 2.5642-10.991 7.5-17.5 7.5s-13.214 5.7785-13.214 3.2143 6.7052-12.5 13.214-12.5 17.5-0.77846 17.5 1.7857z" fill-rule="evenodd" stroke="#000" stroke-linecap="round" stroke-width="3"/>
  <path transform="matrix(.70108 -.71308 .71308 .70108 -49.225 102.84)" d="m-187.14 578.79c0 3.5504-5.1168 6.4286-11.429 6.4286s-11.429-2.8782-11.429-6.4286 17.264-9.356 23.576-9.356-0.71853 5.8056-0.71853 9.356z" fill-rule="evenodd" stroke="#000" stroke-linecap="round" stroke-width="3"/>
  <path transform="matrix(-.70108 -.71308 -.71308 .70108 492.8 134.27)" d="m-186.58 572.23c0 3.5504-5.6775 12.99-11.989 12.99s-11.429-2.8782-11.429-6.4286 5.0825-2.3881 11.394-2.3881 12.024-7.7238 12.024-4.1734z" fill-rule="evenodd" stroke="#000" stroke-linecap="round" stroke-width="3"/>
  <path d="m207.08 716.04c-1.4119 1.7753-1.1195 4.3402 0.65585 5.7522s4.3402 1.1195 5.7522-0.65585 1.1389-4.3647-0.63639-5.7766-4.3597-1.095-5.7716 0.68031zm9.2316-7.5912c-2.4832 3.1223-2.95 6.8772-1.0203 8.4119s5.5076 0.25407 7.9908-2.8682 2.9255-6.8967 0.99582-8.4314-5.4832-0.23462-7.9664 2.8877z" fill-rule="evenodd" stroke="#000" stroke-linecap="round" stroke-width="3"/>
  <path transform="matrix(.89789 .44022 -.44022 .89789 361.08 -20.241)" d="m126.07 665.93c0 2.5642-3.8607 7.5227-9.3836 7.5227s-10.616-4.9585-10.616-7.5227 4.4772-4.6428 10-4.6428 10 2.0787 10 4.6428z" fill-rule="evenodd" stroke="#000" stroke-linecap="round" stroke-width="3"/>
  <path d="m172.25 661.19c-4.5344 3.3227-10.278 0.77775-11.385-0.73371s4.8369-1.1092 9.3712-4.4318 5.9416-9.1122 7.0492-7.6007-0.50065 9.4436-5.035 12.766z" fill-rule="evenodd" stroke="#000" stroke-linecap="round" stroke-width="3"/>
  <path d="m217.63 762.45c0 2.2316-2.9271 4.0406-6.5378 4.0406s-6.5378-1.809-6.5378-4.0406 2.9271-9.0914 6.5378-9.0914 6.5378 6.8598 6.5378 9.0914z" fill-rule="evenodd" stroke="#000" stroke-linecap="round" stroke-width="3"/>
  <path d="m165.67 711.44c0 5.3-1.809 9.5964-4.0406 9.5964s-4.0406-4.2965-4.0406-9.5964 12.921-21.718 15.152-21.718-7.0711 16.418-7.0711 21.718z" fill-rule="evenodd" stroke="#000" stroke-linecap="round" stroke-width="3"/>
  <path d="m166.14 748.81c0-2.2316-2.9271-4.0406-6.5378-4.0406s-6.5378 1.809-6.5378 4.0406 2.9271 9.0914 6.5378 9.0914 6.5378-6.8598 6.5378-9.0914z" fill-rule="evenodd" stroke="#000" stroke-linecap="round" stroke-width="3"/>
  <path d="m561.87 435.15c22.743-23.227-26.475-33.769-48.931-33.769s-40.661 7.0967-40.661 15.851 19.583 3.4458 42.039 3.4458 24.81 37.699 47.553 14.473z" fill-rule="evenodd" stroke="#000" stroke-linecap="round" stroke-width="7.2"/>
  <path d="m-55.145 363.1c-1.4437 2.4913-17.983 0.71768-19.694-4.3216s3.2895-0.98438 4.6195-5.2014-2.1353-8.1799 4.8402-4.1376 11.678 11.169 10.234 13.661z" fill-rule="evenodd" stroke="#000" stroke-linecap="round" stroke-width="3.716"/>
  <path d="m383.23 436.77c0 5.4812 2.7265 21.834-8.6013 21.834s-32.42-16.353-32.42-21.834 9.183-9.9246 20.511-9.9246 20.511 4.4434 20.511 9.9246z" fill-rule="evenodd" stroke="#000" stroke-linecap="round" stroke-width="7.2"/>
  <path d="m534.14 498.28c0 4.7517 4.7306 25.811-3.5848 25.811s-26.528-21.059-26.528-25.811 6.741-8.6036 15.056-8.6036 15.056 3.852 15.056 8.6036z" fill-rule="evenodd" stroke="#000" stroke-linecap="round" stroke-width="7.2"/>
  <path d="m544.63 561.71c0 4.1458-16.887 17.061-25.932 17.061s-6.8242-12.915-6.8242-17.061 7.3327-7.5066 16.378-7.5066 16.378 3.3608 16.378 7.5066z" fill-rule="evenodd" stroke="#000" stroke-linecap="round" stroke-width="7.2"/>
  <path d="m445.55 680.5c0 3.0602 1.588 6.0951-0.55409 6.0951s-7.2033-3.0349-7.2033-6.0951 1.7366-5.541 3.8787-5.541 3.8787 2.4808 3.8787 5.541z" fill-rule="evenodd" stroke="#000" stroke-linecap="round" stroke-width="7.2"/>
  <path d="m425.58 479.11c4.7552 6.2958 17.155 8.526 14.322 10.666s-19.826 3.379-24.581-2.9168-6.3134-13.134-3.4803-15.274 8.9846 1.2292 13.74 7.525z" fill-rule="evenodd" stroke="#000" stroke-linecap="round" stroke-width="7.2"/>
  <path d="m543.65 632.42c-0.7336 3.0695-9.0397-9.5045-17.097-11.43s-13.994-5.9751-13.261-9.0446 7.8601-3.9966 15.917-2.0709 15.174 19.476 14.44 22.546z" fill-rule="evenodd" stroke="#000" stroke-linecap="round" stroke-width="7.2"/>
  <path d="m544.38 696.18c0.66131 2.1698 2.9396 3.3837 5.1094 2.7224s3.3837-2.9396 2.7224-5.1094-2.9487-3.4136-5.1185-2.7523-3.3746 2.9695-2.7133 5.1393zm-1.016-11.909c1.1631 3.816 3.9908 6.3303 6.3493 5.6114s3.3331-4.3919 2.1701-8.208-4.0207-6.3212-6.3792-5.6023-3.3032 4.3828-2.1402 8.1989z" fill-rule="evenodd" stroke="#000" stroke-linecap="round" stroke-width="3"/>
  <path d="m449.05 758.66c-1.0478 1.9703-4.4816 2.1931-7.6696 0.49765s-4.9229-4.667-3.875-6.6373 6.8532-6.6524 10.041-4.957 2.5513 9.1264 1.5035 11.097z" fill-rule="evenodd" stroke="#000" stroke-linecap="round" stroke-width="3"/>
  <path d="m449.52 713.46c0 3.0684 0.4374 12.627-1.5152 12.627s-5.5558-9.5585-5.5558-12.627 1.5829-5.5558 3.5355-5.5558 3.5355 2.4874 3.5355 5.5558z" fill-rule="evenodd" stroke="#000" stroke-linecap="round" stroke-width="7.2"/>
  <path d="m553.57 763.35c0 1.9724-7.0858-2.7312-5.8929-0.35715 0.8856 1.7624-1.25 0.54387-1.25-1.4286s2.1347 0.89286 4.1071 0.89286 3.0357-1.0796 3.0357 0.89286z" fill-rule="evenodd" stroke="#000" stroke-linecap="round" stroke-width="7.2"/>
  <path d="m553.6 726.92c0-3.0602 1.588-6.0951-0.55409-6.0951s-7.2033 3.0349-7.2033 6.0951 1.7366 5.541 3.8787 5.541 3.8787-2.4808 3.8787-5.541z" fill-rule="evenodd" stroke="#000" stroke-linecap="round" stroke-width="7.2"/>
 </g>
</svg>
